<?xml version="1.0" encoding="utf-8"?><!-- Generator: Adobe Illustrator 20.1.0, SVG Export Plug-In . SVG Version: 6.00 Build 0)  -->
<svg style="enable-background:new 0 0 67 67;" id="Layer_1" version="1.1"  viewBox="0 0 67 67" x="0px"
	 xmlns="http://www.w3.org/2000/svg" y="0px" xml:space="preserve">
<title>lock icon</title>
<desc>Created with Sketch.</desc>
<g id="Android_3_">
	<g id="none" transform="translate(-148.000000, -300.000000)">
		<g id="lock-icon" transform="translate(149.000000, 301.000000)">
			<path class="st0" d="M33.4,31.3h10.1c1,0,1.8,0.8,1.8,1.8v13.4c0,1-0.8,1.8-1.8,1.8H22.8c-1,0-1.8-0.8-1.8-1.8V33.1
				c0-1,0.8-1.8,1.8-1.8h3.3c0,0-4.8-10.5,3.9-14s11.9,5.1,12.2,6.2l16.7-10C53,5.3,43.4,0,32.5,0C14.6,0,0,14.5,0,32.5
				S14.6,65,32.5,65l0,0C50.5,65,65,50.4,65,32.5" id="Line_6_"/>
		</g>
	</g>
</g>
</svg>
