<?xml version="1.0" encoding="utf-8"?><!-- Generator: Adobe Illustrator 20.1.0, SVG Export Plug-In . SVG Version: 6.00 Build 0)  -->
<svg style="enable-background:new 0 0 67 67;" id="Layer_1" version="1.1"  viewBox="0 0 67 67" x="0px"
	 xmlns="http://www.w3.org/2000/svg" y="0px" xml:space="preserve">
<title>secure icon</title>
<desc>Created with Sketch.</desc>
<g id="Android">
	<g id="aes-256" transform="translate(-148.000000, -300.000000)">
		<g id="secure-icon" transform="translate(149.000000, 301.000000)">
			<path class="st0" d="M65,32.5C65,50.4,50.4,65,32.5,65l0,0C13.8,65-1.2,49.2,0.1,30.2C1.2,14.1,14.3,1.1,30.4,0.1
				c11.7-0.8,22.2,4.7,28.4,13.3l-8.1,6c-0.4-0.1-0.6-0.2-0.9-0.2C43.9,18.5,38.3,16.8,33,14c-0.3-0.2-0.8-0.1-1.1,0.1
				c-3.3,1.6-6.7,3.2-10.4,4c-2.1,0.5-4.3,0.8-6.4,1.2c-0.5,0.1-0.7,0.3-0.7,0.8c0.1,0.8,0,1.6,0.1,2.5c0.3,3.7,0.3,7.4,1,10.9
				c1.8,9.8,7,17.4,15.4,22.8c1.1,0.7,2.1,0.8,3.2,0.1c6.3-3.9,10.9-9.3,13.7-16.2c0.9-2.1,1.5-4.2,1.9-6.4"/>
		</g>
	</g>
</g>
</svg>
